<mxfile host="app.diagrams.net" modified="2022-03-25T12:51:41.535Z" agent="5.0 (Windows NT 10.0; Win64; x64) AppleWebKit/537.36 (KHTML, like Gecko) Chrome/99.0.4844.82 Safari/537.36" etag="HjMG-MNn6EbVZs45TYue" version="17.1.0" type="github">
  <diagram name="Page-1" id="5348f1db-0dfa-24cf-5d06-2057accb5106">
    <mxGraphModel dx="4740" dy="2540" grid="1" gridSize="10" guides="1" tooltips="1" connect="1" arrows="1" fold="1" page="1" pageScale="1.5" pageWidth="826" pageHeight="1169" background="none" math="0" shadow="0">
      <root>
        <mxCell id="0" style=";html=1;" />
        <mxCell id="1" style=";html=1;" parent="0" />
        <mxCell id="55dd390204d0f602-3" value="" style="whiteSpace=wrap;html=1;rounded=0;shadow=0;dashed=0;strokeColor=none;strokeWidth=4;fillColor=#08585C;gradientColor=none;fontFamily=Helvetica;fontSize=100;fontColor=#FFFFFF;align=center;" parent="1" vertex="1">
          <mxGeometry x="200" y="280" width="2400" height="1810" as="geometry" />
        </mxCell>
        <mxCell id="55dd390204d0f602-1" value="&lt;blockquote style=&quot;margin: 0 0 0 40px ; border: none ; padding: 0px&quot;&gt;FLASH CARDS&lt;/blockquote&gt;" style="whiteSpace=wrap;html=1;rounded=0;shadow=0;dashed=0;strokeColor=none;strokeWidth=4;fillColor=#333333;gradientColor=none;fontFamily=Helvetica;fontSize=100;fontColor=#FFFFFF;align=left;" parent="1" vertex="1">
          <mxGeometry x="200" y="130" width="2400" height="150" as="geometry" />
        </mxCell>
        <mxCell id="MdLTqhbY8C-cr0AxBz09-2" value="&lt;span style=&quot;font-size: 102px&quot;&gt;GIT HUB&lt;/span&gt;" style="rounded=0;whiteSpace=wrap;html=1;fillColor=#647687;strokeColor=#314354;fontColor=#ffffff;" vertex="1" parent="1">
          <mxGeometry x="250" y="350" width="740" height="830" as="geometry" />
        </mxCell>
        <mxCell id="MdLTqhbY8C-cr0AxBz09-3" value="&lt;span style=&quot;font-size: 102px&quot;&gt;ASYNC FUNCTIONS&lt;br&gt;&lt;/span&gt;" style="rounded=0;whiteSpace=wrap;html=1;fillColor=#647687;strokeColor=#314354;fontColor=#ffffff;" vertex="1" parent="1">
          <mxGeometry x="1040" y="350" width="720" height="830" as="geometry" />
        </mxCell>
        <mxCell id="MdLTqhbY8C-cr0AxBz09-4" value="&lt;span style=&quot;font-size: 102px&quot;&gt;DATABASE&lt;/span&gt;" style="rounded=0;whiteSpace=wrap;html=1;fillColor=#647687;strokeColor=#314354;fontColor=#ffffff;" vertex="1" parent="1">
          <mxGeometry x="1830" y="350" width="740" height="830" as="geometry" />
        </mxCell>
        <mxCell id="MdLTqhbY8C-cr0AxBz09-5" value="" style="image;image=img/lib/atlassian/Sourcetree_Logo.svg;fontSize=102;" vertex="1" parent="1">
          <mxGeometry x="2478" y="169.5" width="57" height="71" as="geometry" />
        </mxCell>
        <mxCell id="MdLTqhbY8C-cr0AxBz09-7" value="" style="rounded=0;whiteSpace=wrap;html=1;fontSize=102;fillColor=#a0522d;fontColor=#ffffff;strokeColor=#6D1F00;" vertex="1" parent="1">
          <mxGeometry x="200" y="1850" width="2400" height="400" as="geometry" />
        </mxCell>
        <mxCell id="MdLTqhbY8C-cr0AxBz09-15" value="Who we are and contacts on us...." style="text;html=1;strokeColor=none;fillColor=none;align=center;verticalAlign=middle;whiteSpace=wrap;rounded=0;fontSize=102;" vertex="1" parent="1">
          <mxGeometry x="250" y="1940" width="890" height="170" as="geometry" />
        </mxCell>
      </root>
    </mxGraphModel>
  </diagram>
</mxfile>
